<?xml version="1.0" standalone="no"?><!-- Generator: Gravit.io --><svg xmlns="http://www.w3.org/2000/svg" xmlns:xlink="http://www.w3.org/1999/xlink" style="isolation:isolate" viewBox="0 0 256 256" width="256" height="256"><defs><filter id="e16cyFWV5BTeLNuVAhu4xUWpxl0F2h6H" x="-200%" y="-200%" width="400%" height="400%"><feOffset xmlns="http://www.w3.org/2000/svg" in="SourceAlpha" result="offOut" dx="16" dy="16"/><feGaussianBlur xmlns="http://www.w3.org/2000/svg" in="offOut" result="blurOut" stdDeviation="8"/><feComponentTransfer xmlns="http://www.w3.org/2000/svg" in="blurOut" result="opacOut"><feFuncA xmlns="http://www.w3.org/2000/svg" type="table" tableValues="0 0.5"/></feComponentTransfer><feBlend xmlns="http://www.w3.org/2000/svg" in="SourceGraphic" in2="opacOut" mode="normal"/></filter></defs><g opacity="0.24" filter="url(#e16cyFWV5BTeLNuVAhu4xUWpxl0F2h6H)"><path d=" M 36.565 152.5 L 36.565 152.5 L 36.565 152.5 C 32.942 138.978 32.942 117.022 36.565 103.5 L 36.565 103.5 L 36.565 103.5 C 40.188 89.978 51.166 70.963 61.065 61.065 L 61.065 61.065 L 61.065 61.065 C 70.963 51.166 89.978 40.188 103.5 36.565 L 103.5 36.565 L 103.5 36.565 C 117.022 32.942 138.978 32.942 152.5 36.565 L 152.5 36.565 L 152.5 36.565 C 166.022 40.188 185.037 51.166 194.935 61.065 L 194.935 61.065 L 194.935 61.065 C 204.834 70.963 215.812 89.978 219.435 103.5 L 219.435 103.5 L 219.435 103.5 C 223.058 117.022 223.058 138.978 219.435 152.5 L 219.435 152.5 L 219.435 152.5 C 215.812 166.022 204.834 185.037 194.935 194.935 L 194.935 194.935 L 194.935 194.935 C 185.037 204.834 166.022 215.812 152.5 219.435 L 152.5 219.435 L 152.5 219.435 C 138.978 223.058 117.022 223.058 103.5 219.435 L 103.5 219.435 L 103.5 219.435 C 89.978 215.812 70.963 204.834 61.065 194.935 L 61.065 194.935 L 61.065 194.935 C 51.166 185.037 40.188 166.022 36.565 152.5 Z " fill="rgb(255,255,255)"/></g><path d="M 128 46.023 L 128 46.023 C 172.833 46.023 209.232 82.422 209.232 127.255 L 209.232 128.745 C 209.232 173.578 172.833 209.977 128 209.977 L 128 209.977 C 83.167 209.977 46.768 173.578 46.768 128.745 L 46.768 127.255 C 46.768 82.422 83.167 46.023 128 46.023 Z" style="stroke:none;fill:#FFFFFF;stroke-miterlimit:10;"/></svg>